<?xml version="1.0" encoding="UTF-8" standalone="no"?>
<svg width="556px" height="135px" viewBox="0 0 556 135" version="1.1" xmlns="http://www.w3.org/2000/svg" xmlns:xlink="http://www.w3.org/1999/xlink" xmlns:sketch="http://www.bohemiancoding.com/sketch/ns">
    <!-- Generator: Sketch 3.3.3 (12072) - http://www.bohemiancoding.com/sketch -->
    <title>Intro Copy</title>
    <desc>Created with Sketch.</desc>
    <defs></defs>
    <g id="Page-1" stroke="none" stroke-width="1" fill="none" fill-rule="evenodd" sketch:type="MSPage">
        <g id="Artboard-16" sketch:type="MSArtboardGroup" transform="translate(-222.000000, -207.000000)">
            <g id="Intro-Copy" sketch:type="MSLayerGroup" transform="translate(222.000000, 207.000000)">
                <rect id="-" fill="#F44336" sketch:type="MSShapeGroup" transform="translate(278.238656, 1.500000) scale(1, -1) translate(-278.238656, -1.500000) " x="0.738655729" y="0" width="555" height="3"></rect>
                <path d="M500.014417,96.0971078 L501.068958,96.0951878 L502.062532,94.5723728 L507.516055,94.7225356 L504.954765,101 L506.361607,100.993768 L510.328558,94.8339282 L511.248263,94.8396882 C511.793033,94.838644 512.285424,94.7665267 512.729816,94.624347 L513.336193,94.4224795 C513.785469,94.2679041 514.009163,94.1074004 514.008018,93.9464588 C514.007681,93.7687762 513.782471,93.6023441 513.332521,93.4547077 L512.722439,93.2558717 C512.280809,93.120193 511.775955,93.0528925 511.211918,93.0529936 L510.320205,93.0756292 L506.305725,86.9355613 L504.901073,86.9429718 L507.507061,93.2016069 L502.056334,93.3930998 L501.056596,91.8768195 L500,91.8810974 L500.948336,93.9881931 L500.014417,96.0971078 Z" id="Fill-6-Copy" fill="#888888" sketch:type="MSShapeGroup" transform="translate(507.004011, 93.967781) scale(-1, 1) rotate(-180.000000) translate(-507.004011, -93.967781) "></path>
                <path d="M41.0144167,96.0971078 L42.0689582,96.0951878 L43.0625319,94.5723728 L48.5160547,94.7225356 L45.9547654,101 L47.3616068,100.993768 L51.3285585,94.8339282 L52.2482634,94.8396882 C52.7930329,94.838644 53.285424,94.7665267 53.7298156,94.624347 L54.336193,94.4224795 C54.7854687,94.2679041 55.0091634,94.1074004 55.0080181,93.9464588 C55.0076813,93.7687762 54.7824708,93.6023441 54.3325214,93.4547077 L53.7224388,93.2558717 C53.2808093,93.120193 52.7759552,93.0528925 52.2119185,93.0529936 L51.3202049,93.0756292 L47.3057252,86.9355613 L45.9010733,86.9429718 L48.5070611,93.2016069 L43.0563341,93.3930998 L42.0565963,91.8768195 L41,91.8810974 L41.9483362,93.9881931 L41.0144167,96.0971078 Z" id="Fill-6" fill="#888888" sketch:type="MSShapeGroup" transform="translate(48.004011, 93.967781) rotate(-180.000000) translate(-48.004011, -93.967781) "></path>
                <rect id="-" fill="#2196F3" sketch:type="MSShapeGroup" transform="translate(277.500000, 133.500000) scale(1, -1) translate(-277.500000, -133.500000) " x="0" y="132" width="555" height="3"></rect>
                <path d="M39.188,59.21 L28.94,29.6 L34.526,29.6 L41.54,51.398 L48.764,29.516 L53.132,29.516 L60.356,51.398 L67.37,29.6 L72.788,29.6 L62.54,59.21 L58.088,59.21 L50.864,38.084 L43.64,59.21 L39.188,59.21 Z M77.492,59 L77.492,28.34 L82.574,28.34 L82.574,40.268 C84.3380088,37.663987 86.6479857,36.362 89.504,36.362 C91.9680123,36.362 93.899993,37.1319923 95.3,38.672 C96.700007,40.2120077 97.4,42.283987 97.4,44.888 L97.4,59 L92.318,59 L92.318,46.4 C92.318,44.6639913 91.9050041,43.3270047 91.079,42.389 C90.2529959,41.4509953 89.0840076,40.982 87.572,40.982 C86.0879926,40.982 84.8840046,41.4719951 83.96,42.452 C83.0359954,43.4320049 82.574,44.7759915 82.574,46.484 L82.574,59 L77.492,59 Z M113.696,59.504 C110.447984,59.504 107.739011,58.4330107 105.569,56.291 C103.398989,54.1489893 102.314,51.3840169 102.314,47.996 L102.314,47.912 C102.314,44.6919839 103.33599,41.9620112 105.38,39.722 C107.42401,37.4819888 110.013984,36.362 113.15,36.362 C116.510017,36.362 119.120991,37.5029886 120.983,39.785 C122.845009,42.0670114 123.776,44.9019831 123.776,48.29 C123.776,48.5700014 123.748,49.0459966 123.692,49.718 L107.396,49.718 C107.676001,51.4820088 108.389994,52.860995 109.538,53.855 C110.686006,54.849005 112.099992,55.346 113.78,55.346 C115.964011,55.346 117.965991,54.4640088 119.786,52.7 L122.768,55.346 C120.471989,58.1180139 117.448019,59.504 113.696,59.504 L113.696,59.504 Z M107.354,46.358 L118.736,46.358 C118.567999,44.6499915 117.994005,43.2500055 117.014,42.158 C116.033995,41.0659945 114.732008,40.52 113.108,40.52 C111.567992,40.52 110.280005,41.0589946 109.244,42.137 C108.207995,43.2150054 107.578001,44.6219913 107.354,46.358 L107.354,46.358 Z M128.9,59 L128.9,36.824 L133.982,36.824 L133.982,41.822 C135.550008,38.0419811 138.167982,36.2359992 141.836,36.404 L141.836,41.78 L141.542,41.78 C139.245989,41.78 137.412007,42.5289925 136.04,44.027 C134.667993,45.5250075 133.982,47.7019857 133.982,50.558 L133.982,59 L128.9,59 Z M156.41,59.504 C153.161984,59.504 150.453011,58.4330107 148.283,56.291 C146.112989,54.1489893 145.028,51.3840169 145.028,47.996 L145.028,47.912 C145.028,44.6919839 146.04999,41.9620112 148.094,39.722 C150.13801,37.4819888 152.727984,36.362 155.864,36.362 C159.224017,36.362 161.834991,37.5029886 163.697,39.785 C165.559009,42.0670114 166.49,44.9019831 166.49,48.29 C166.49,48.5700014 166.462,49.0459966 166.406,49.718 L150.11,49.718 C150.390001,51.4820088 151.103994,52.860995 152.252,53.855 C153.400006,54.849005 154.813992,55.346 156.494,55.346 C158.678011,55.346 160.679991,54.4640088 162.5,52.7 L165.482,55.346 C163.185989,58.1180139 160.162019,59.504 156.41,59.504 L156.41,59.504 Z M150.068,46.358 L161.45,46.358 C161.281999,44.6499915 160.708005,43.2500055 159.728,42.158 C158.747995,41.0659945 157.446008,40.52 155.822,40.52 C154.281992,40.52 152.994005,41.0589946 151.958,42.137 C150.921995,43.2150054 150.292001,44.6219913 150.068,46.358 L150.068,46.358 Z M184.214,59 L184.214,28.34 L189.296,28.34 L189.296,40.268 C191.060009,37.663987 193.369986,36.362 196.226,36.362 C198.690012,36.362 200.621993,37.1319923 202.022,38.672 C203.422007,40.2120077 204.122,42.283987 204.122,44.888 L204.122,59 L199.04,59 L199.04,46.4 C199.04,44.6639913 198.627004,43.3270047 197.801,42.389 C196.974996,41.4509953 195.806008,40.982 194.294,40.982 C192.809993,40.982 191.606005,41.4719951 190.682,42.452 C189.757995,43.4320049 189.296,44.7759915 189.296,46.484 L189.296,59 L184.214,59 Z M228.86,59 L223.82,59 L223.82,56.27 C222.027991,58.3980106 219.634015,59.462 216.638,59.462 C214.425989,59.462 212.557008,58.8530061 211.031,57.635 C209.504992,56.4169939 208.742,54.7440106 208.742,52.616 L208.742,52.532 C208.742,50.1519881 209.567992,48.3460062 211.22,47.114 C212.872008,45.8819938 215.041987,45.266 217.73,45.266 C219.886011,45.266 221.92999,45.5739969 223.862,46.19 L223.862,45.77 C223.862,44.2299923 223.393005,43.0540041 222.455,42.242 C221.516995,41.4299959 220.166009,41.024 218.402,41.024 C216.38599,41.024 214.272011,41.4859954 212.06,42.41 L210.674,38.336 C213.418014,37.1039938 216.231986,36.488 219.116,36.488 C222.336016,36.488 224.764992,37.2999919 226.403,38.924 C228.041008,40.5480081 228.86,42.857985 228.86,45.854 L228.86,59 Z M223.946,50.978 L223.946,49.718 C222.433992,49.1299971 220.740009,48.836 218.864,48.836 C217.267992,48.836 216.022004,49.1439969 215.126,49.76 C214.229996,50.3760031 213.782,51.2159947 213.782,52.28 L213.782,52.364 C213.782,53.372005 214.187996,54.1699971 215,54.758 C215.812004,55.3460029 216.833994,55.64 218.066,55.64 C219.774009,55.64 221.180994,55.2060043 222.287,54.338 C223.393006,53.4699957 223.946,52.3500069 223.946,50.978 L223.946,50.978 Z M241.922,59.168 L232.808,36.824 L238.268,36.824 L244.232,53.12 L250.238,36.824 L255.572,36.824 L246.5,59.168 L241.922,59.168 Z M270.062,59.504 C266.813984,59.504 264.105011,58.4330107 261.935,56.291 C259.764989,54.1489893 258.68,51.3840169 258.68,47.996 L258.68,47.912 C258.68,44.6919839 259.70199,41.9620112 261.746,39.722 C263.79001,37.4819888 266.379984,36.362 269.516,36.362 C272.876017,36.362 275.486991,37.5029886 277.349,39.785 C279.211009,42.0670114 280.142,44.9019831 280.142,48.29 C280.142,48.5700014 280.114,49.0459966 280.058,49.718 L263.762,49.718 C264.042001,51.4820088 264.755994,52.860995 265.904,53.855 C267.052006,54.849005 268.465992,55.346 270.146,55.346 C272.330011,55.346 274.331991,54.4640088 276.152,52.7 L279.134,55.346 C276.837989,58.1180139 273.814019,59.504 270.062,59.504 L270.062,59.504 Z M263.72,46.358 L275.102,46.358 C274.933999,44.6499915 274.360005,43.2500055 273.38,42.158 C272.399995,41.0659945 271.098008,40.52 269.474,40.52 C267.933992,40.52 266.646005,41.0589946 265.61,42.137 C264.573995,43.2150054 263.944001,44.6219913 263.72,46.358 L263.72,46.358 Z M305.3,59.378 C301.043979,59.378 298.916,57.2080217 298.916,52.868 L298.916,41.192 L296.102,41.192 L296.102,36.824 L298.916,36.824 L298.916,30.734 L303.998,30.734 L303.998,36.824 L309.962,36.824 L309.962,41.192 L303.998,41.192 L303.998,52.07 C303.998,53.9180092 304.907991,54.842 306.728,54.842 C307.820005,54.842 308.869995,54.5900025 309.878,54.086 L309.878,58.244 C308.533993,59.0000038 307.008009,59.378 305.3,59.378 L305.3,59.378 Z M315.086,59 L315.086,28.34 L320.168,28.34 L320.168,40.268 C321.932009,37.663987 324.241986,36.362 327.098,36.362 C329.562012,36.362 331.493993,37.1319923 332.894,38.672 C334.294007,40.2120077 334.994,42.283987 334.994,44.888 L334.994,59 L329.912,59 L329.912,46.4 C329.912,44.6639913 329.499004,43.3270047 328.673,42.389 C327.846996,41.4509953 326.678008,40.982 325.166,40.982 C323.681993,40.982 322.478005,41.4719951 321.554,42.452 C320.629995,43.4320049 320.168,44.7759915 320.168,46.484 L320.168,59 L315.086,59 Z M351.29,59.504 C348.041984,59.504 345.333011,58.4330107 343.163,56.291 C340.992989,54.1489893 339.908,51.3840169 339.908,47.996 L339.908,47.912 C339.908,44.6919839 340.92999,41.9620112 342.974,39.722 C345.01801,37.4819888 347.607984,36.362 350.744,36.362 C354.104017,36.362 356.714991,37.5029886 358.577,39.785 C360.439009,42.0670114 361.37,44.9019831 361.37,48.29 C361.37,48.5700014 361.342,49.0459966 361.286,49.718 L344.99,49.718 C345.270001,51.4820088 345.983994,52.860995 347.132,53.855 C348.280006,54.849005 349.693992,55.346 351.374,55.346 C353.558011,55.346 355.559991,54.4640088 357.38,52.7 L360.362,55.346 C358.065989,58.1180139 355.042019,59.504 351.29,59.504 L351.29,59.504 Z M344.948,46.358 L356.33,46.358 C356.161999,44.6499915 355.588005,43.2500055 354.608,42.158 C353.627995,41.0659945 352.326008,40.52 350.702,40.52 C349.161992,40.52 347.874005,41.0589946 346.838,42.137 C345.801995,43.2150054 345.172001,44.6219913 344.948,46.358 L344.948,46.358 Z M371.03,65.846 C369.181991,65.846 367.432008,65.3980045 365.78,64.502 L367.502,60.722 C368.538005,61.2820028 369.531995,61.562 370.484,61.562 C371.212004,61.562 371.813998,61.3730019 372.29,60.995 C372.766002,60.6169981 373.213998,59.9520048 373.634,59 L364.394,36.824 L369.812,36.824 L376.112,53.288 L381.866,36.824 L387.158,36.824 L378.338,59.63 C377.441996,61.8980113 376.448005,63.5009953 375.356,64.439 C374.263995,65.3770047 372.822009,65.846 371.03,65.846 L371.03,65.846 Z M416.726,59.462 C413.673985,59.462 411.16801,58.160013 409.208,55.556 L409.208,59 L404.126,59 L404.126,28.34 L409.208,28.34 L409.208,40.52 C411.16801,37.7479861 413.673985,36.362 416.726,36.362 C419.526014,36.362 421.94799,37.4049896 423.992,39.491 C426.03601,41.5770104 427.058,44.3699825 427.058,47.87 L427.058,47.954 C427.058,51.4540175 426.03601,54.2469896 423.992,56.333 C421.94799,58.4190104 419.526014,59.462 416.726,59.462 L416.726,59.462 Z M415.55,55.052 C417.342009,55.052 418.846994,54.4010065 420.065,53.099 C421.283006,51.7969935 421.892,50.0820106 421.892,47.954 L421.892,47.87 C421.892,45.7699895 421.276006,44.0620066 420.044,42.746 C418.811994,41.4299934 417.314009,40.772 415.55,40.772 C413.785991,40.772 412.267006,41.4369934 410.993,42.767 C409.718994,44.0970067 409.082,45.7979896 409.082,47.87 L409.082,47.954 C409.082,50.0260104 409.718994,51.7269934 410.993,53.057 C412.267006,54.3870067 413.785991,55.052 415.55,55.052 L415.55,55.052 Z M442.43,59.504 C439.181984,59.504 436.473011,58.4330107 434.303,56.291 C432.132989,54.1489893 431.048,51.3840169 431.048,47.996 L431.048,47.912 C431.048,44.6919839 432.06999,41.9620112 434.114,39.722 C436.15801,37.4819888 438.747984,36.362 441.884,36.362 C445.244017,36.362 447.854991,37.5029886 449.717,39.785 C451.579009,42.0670114 452.51,44.9019831 452.51,48.29 C452.51,48.5700014 452.482,49.0459966 452.426,49.718 L436.13,49.718 C436.410001,51.4820088 437.123994,52.860995 438.272,53.855 C439.420006,54.849005 440.833992,55.346 442.514,55.346 C444.698011,55.346 446.699991,54.4640088 448.52,52.7 L451.502,55.346 C449.205989,58.1180139 446.182019,59.504 442.43,59.504 L442.43,59.504 Z M436.088,46.358 L447.47,46.358 C447.301999,44.6499915 446.728005,43.2500055 445.748,42.158 C444.767995,41.0659945 443.466008,40.52 441.842,40.52 C440.301992,40.52 439.014005,41.0589946 437.978,42.137 C436.941995,43.2150054 436.312001,44.6219913 436.088,46.358 L436.088,46.358 Z M467.798,59.504 C464.549984,59.504 461.841011,58.4330107 459.671,56.291 C457.500989,54.1489893 456.416,51.3840169 456.416,47.996 L456.416,47.912 C456.416,44.6919839 457.43799,41.9620112 459.482,39.722 C461.52601,37.4819888 464.115984,36.362 467.252,36.362 C470.612017,36.362 473.222991,37.5029886 475.085,39.785 C476.947009,42.0670114 477.878,44.9019831 477.878,48.29 C477.878,48.5700014 477.85,49.0459966 477.794,49.718 L461.498,49.718 C461.778001,51.4820088 462.491994,52.860995 463.64,53.855 C464.788006,54.849005 466.201992,55.346 467.882,55.346 C470.066011,55.346 472.067991,54.4640088 473.888,52.7 L476.87,55.346 C474.573989,58.1180139 471.550019,59.504 467.798,59.504 L467.798,59.504 Z M461.456,46.358 L472.838,46.358 C472.669999,44.6499915 472.096005,43.2500055 471.116,42.158 C470.135995,41.0659945 468.834008,40.52 467.21,40.52 C465.669992,40.52 464.382005,41.0589946 463.346,42.137 C462.309995,43.2150054 461.680001,44.6219913 461.456,46.358 L461.456,46.358 Z M483.002,59 L483.002,36.824 L488.084,36.824 L488.084,40.268 C489.848009,37.663987 492.157986,36.362 495.014,36.362 C497.478012,36.362 499.409993,37.1319923 500.81,38.672 C502.210007,40.2120077 502.91,42.283987 502.91,44.888 L502.91,59 L497.828,59 L497.828,46.4 C497.828,44.6639913 497.415004,43.3270047 496.589,42.389 C495.762996,41.4509953 494.594008,40.982 493.082,40.982 C491.597993,40.982 490.394005,41.4719951 489.47,42.452 C488.545995,43.4320049 488.084,44.7759915 488.084,46.484 L488.084,59 L483.002,59 Z M514.544,49.718 L513.704,42.914 L513.914,42.704 C519.094026,42.507999 521.684,40.9400147 521.684,38 L521.684,37.916 C521.684,36.711994 521.250004,35.7460036 520.382,35.018 C519.513996,34.2899964 518.338007,33.926 516.854,33.926 C514.361988,33.926 512.08001,35.0319889 510.008,37.244 L506.858,33.884 C509.602014,30.7759845 512.97598,29.222 516.98,29.222 C519.948015,29.222 522.327991,29.9919923 524.12,31.532 C525.912009,33.0720077 526.808,35.143987 526.808,37.748 L526.808,37.832 C526.808,40.3240125 526.038008,42.2489932 524.498,43.607 C522.957992,44.9650068 520.914013,45.8679978 518.366,46.316 L517.946,49.718 L514.544,49.718 Z M513.326,59 L513.326,53.246 L518.954,53.246 L518.954,59 L513.326,59 Z" id="Where-have-they-been" fill="#FFFFFF" sketch:type="MSShapeGroup"></path>
                <path d="M78.737793,88.5068359 C79.4252964,87.7119101 80.27034,87.1139343 81.2729492,86.7128906 C82.2755584,86.311847 83.3139595,86.1113281 84.3881836,86.1113281 C85.4409232,86.1113281 86.389807,86.2957338 87.2348633,86.6645508 C88.0799196,87.0333677 88.7512996,87.5758428 89.2490234,88.2919922 C89.7467473,89.0081416 89.9956055,89.8424432 89.9956055,90.7949219 C89.9956055,91.9908914 89.5211636,93.1653588 88.5722656,94.3183594 C87.6233677,95.4713599 86.1391703,96.7818937 84.1196289,98.25 L90.1030273,98.25 L90.1030273,101 L79.0600586,101 L79.0600586,98.5400391 C80.1557672,97.7307902 81.0473598,97.0647813 81.7348633,96.5419922 C82.4223667,96.0192031 83.0865853,95.4946315 83.7275391,94.9682617 C84.3684928,94.4418919 84.8626285,94.008628 85.2099609,93.668457 C85.5572934,93.3282861 85.865233,92.9809588 86.1337891,92.6264648 C86.4023451,92.2719709 86.5849605,91.9550795 86.6816406,91.6757812 C86.7783208,91.396483 86.8266602,91.1028661 86.8266602,90.7949219 C86.8266602,90.1790334 86.5957054,89.7063819 86.1337891,89.3769531 C85.6718727,89.0475244 85.1114942,88.8828125 84.4526367,88.8828125 C82.8985925,88.8828125 81.584478,89.4449814 80.5102539,90.5693359 L78.737793,88.5068359 Z M91.972168,93.6738281 C91.972168,92.6998649 92.0939115,91.7724653 92.3374023,90.8916016 C92.5808931,90.0107378 92.9425432,89.2086625 93.4223633,88.4853516 C93.9021834,87.7620407 94.5395468,87.185549 95.3344727,86.7558594 C96.1293985,86.3261697 97.0317332,86.1113281 98.0415039,86.1113281 C99.0512746,86.1113281 99.9536093,86.3261697 100.748535,86.7558594 C101.543461,87.185549 102.180824,87.7620407 102.660645,88.4853516 C103.140465,89.2086625 103.502115,90.0107378 103.745605,90.8916016 C103.989096,91.7724653 104.11084,92.6998649 104.11084,93.6738281 C104.11084,94.6477913 103.989096,95.5769813 103.745605,96.4614258 C103.502115,97.3458703 103.140465,98.1515263 102.660645,98.878418 C102.180824,99.6053096 101.543461,100.185382 100.748535,100.618652 C99.9536093,101.051923 99.0512746,101.268555 98.0415039,101.268555 C97.0317332,101.268555 96.1293985,101.051923 95.3344727,100.618652 C94.5395468,100.185382 93.9021834,99.6053096 93.4223633,98.878418 C92.9425432,98.1515263 92.5808931,97.3458703 92.3374023,96.4614258 C92.0939115,95.5769813 91.972168,94.6477913 91.972168,93.6738281 L91.972168,93.6738281 Z M95.1625977,93.6738281 C95.1625977,94.6191454 95.2539053,95.4409145 95.4365234,96.1391602 C95.6191415,96.8374058 95.9306619,97.4049457 96.3710938,97.8417969 C96.8115256,98.278648 97.3683235,98.4970703 98.0415039,98.4970703 C98.7146844,98.4970703 99.2714822,98.278648 99.7119141,97.8417969 C100.152346,97.4049457 100.463866,96.8374058 100.646484,96.1391602 C100.829102,95.4409145 100.92041,94.6191454 100.92041,93.6738281 C100.92041,92.7285109 100.830893,91.9103225 100.651855,91.2192383 C100.472818,90.5281541 100.163088,89.9659852 99.7226562,89.5327148 C99.2822244,89.0994444 98.7218458,88.8828125 98.0415039,88.8828125 C97.5330378,88.8828125 97.0890318,89.0027657 96.7094727,89.2426758 C96.3299135,89.4825858 96.0309256,89.8245421 95.8125,90.2685547 C95.5940744,90.7125673 95.4311529,91.2156547 95.3237305,91.777832 C95.2163081,92.3400093 95.1625977,92.9720017 95.1625977,93.6738281 L95.1625977,93.6738281 Z M105.099121,90.9667969 L109.718262,86.3261719 L112.446777,86.3261719 L112.446777,101 L109.320801,101 L109.320801,90.3544922 L106.871582,92.8359375 L105.099121,90.9667969 Z M114.960449,99.0664062 L116.700684,96.8857422 C117.731939,97.9599663 119.03173,98.4970703 120.600098,98.4970703 C121.445154,98.4970703 122.111163,98.2893901 122.598145,97.8740234 C123.085126,97.4586568 123.328613,96.9394562 123.328613,96.3164062 C123.328613,95.6575488 123.094078,95.1293965 122.625,94.7319336 C122.155922,94.3344707 121.509607,94.1357422 120.686035,94.1357422 C119.468581,94.1357422 118.440922,94.5331992 117.603027,95.328125 L115.422363,94.7265625 L115.422363,86.3261719 L125.498535,86.3261719 L125.498535,89.0761719 L118.54834,89.0761719 L118.54834,92.6640625 C118.920738,92.2916648 119.389808,91.9926769 119.955566,91.7670898 C120.521324,91.5415028 121.130042,91.4287109 121.781738,91.4287109 C122.619633,91.4287109 123.393063,91.614907 124.102051,91.9873047 C124.811039,92.3597024 125.38753,92.9129195 125.831543,93.6469727 C126.275556,94.3810258 126.497559,95.2242791 126.497559,96.1767578 C126.497559,97.7236405 125.962245,98.9589798 124.891602,99.8828125 C123.820958,100.806645 122.397633,101.268555 120.621582,101.268555 C118.200997,101.268555 116.313972,100.534513 114.960449,99.0664062 L114.960449,99.0664062 Z M133.662598,93.6738281 C133.662598,92.1699144 134.017086,90.8343157 134.726074,89.6669922 C135.435062,88.4996686 136.380365,87.6098663 137.562012,86.9975586 C138.743658,86.3852508 140.054192,86.0791016 141.493652,86.0791016 C142.224125,86.0791016 142.911618,86.1668285 143.556152,86.3422852 C144.200687,86.5177418 144.768227,86.7630193 145.258789,87.078125 C145.749351,87.3932307 146.180825,87.7387677 146.553223,88.1147461 C146.92562,88.4907245 147.255044,88.9078753 147.541504,89.3662109 L144.963379,90.7734375 C144.598143,90.2220025 144.111168,89.765464 143.502441,89.4038086 C142.893714,89.0421531 142.224125,88.8613281 141.493652,88.8613281 C140.154453,88.8613281 139.049809,89.3160762 138.179688,90.2255859 C137.309566,91.1350957 136.874512,92.2844983 136.874512,93.6738281 C136.874512,95.063158 137.309566,96.2143509 138.179688,97.1274414 C139.049809,98.0405319 140.154453,98.4970703 141.493652,98.4970703 C142.102379,98.4970703 142.687823,98.3842785 143.25,98.1586914 C143.812177,97.9331043 144.257974,97.6699234 144.587402,97.3691406 L144.587402,95.6074219 L140.720215,95.6074219 L140.720215,92.8789062 L147.713379,92.8789062 L147.713379,98.5185547 C146.080558,100.351897 144.007337,101.268555 141.493652,101.268555 C140.054192,101.268555 138.743658,100.960615 137.562012,100.344727 C136.380365,99.7288381 135.435062,98.8390358 134.726074,97.675293 C134.017086,96.5115502 133.662598,95.1777419 133.662598,93.6738281 L133.662598,93.6738281 Z M149.496582,93.6738281 C149.496582,92.585281 149.688149,91.5683641 150.071289,90.6230469 C150.454429,89.6777296 150.982581,88.873864 151.655762,88.2114258 C152.328942,87.5489876 153.14176,87.0279967 154.094238,86.6484375 C155.046717,86.2688783 156.070795,86.0791016 157.166504,86.0791016 C158.627449,86.0791016 159.939773,86.401364 161.103516,87.0458984 C162.267258,87.6904329 163.178545,88.5927676 163.837402,89.7529297 C164.49626,90.9130917 164.825684,92.2200448 164.825684,93.6738281 C164.825684,95.1276114 164.49626,96.4345645 163.837402,97.5947266 C163.178545,98.7548886 162.267258,99.6572233 161.103516,100.301758 C159.939773,100.946292 158.627449,101.268555 157.166504,101.268555 C156.070795,101.268555 155.046717,101.078778 154.094238,100.699219 C153.14176,100.31966 152.328942,99.7986687 151.655762,99.1362305 C150.982581,98.4737923 150.454429,97.6699266 150.071289,96.7246094 C149.688149,95.7792921 149.496582,94.7623752 149.496582,93.6738281 L149.496582,93.6738281 Z M152.708496,93.6738281 C152.708496,95.063158 153.116695,96.2143509 153.933105,97.1274414 C154.749516,98.0405319 155.827305,98.4970703 157.166504,98.4970703 C158.498542,98.4970703 159.57275,98.0405319 160.38916,97.1274414 C161.20557,96.2143509 161.61377,95.063158 161.61377,93.6738281 C161.61377,92.2773368 161.20557,91.1261439 160.38916,90.2202148 C159.57275,89.3142858 158.498542,88.8613281 157.166504,88.8613281 C155.820143,88.8613281 154.740564,89.3142858 153.927734,90.2202148 C153.114905,91.1261439 152.708496,92.2773368 152.708496,93.6738281 L152.708496,93.6738281 Z M167.01709,101 L167.01709,86.3261719 L173.881348,86.3261719 C174.654789,86.3261719 175.358395,86.4514961 175.992188,86.7021484 C176.62598,86.9528007 177.14518,87.2929666 177.549805,87.7226562 C177.954429,88.1523459 178.265949,88.6518526 178.484375,89.2211914 C178.702801,89.7905302 178.812012,90.4010384 178.812012,91.0527344 C178.812012,91.6972688 178.702801,92.302406 178.484375,92.8681641 C178.265949,93.4339221 177.952639,93.9334288 177.544434,94.3666992 C177.136228,94.7999696 176.617028,95.1419258 175.986816,95.3925781 C175.356605,95.6432304 174.654789,95.7685547 173.881348,95.7685547 L170.143066,95.7685547 L170.143066,101 L167.01709,101 Z M170.143066,93.0185547 L173.440918,93.0185547 C174.071129,93.0185547 174.59212,92.83952 175.003906,92.4814453 C175.415692,92.1233706 175.621582,91.6471384 175.621582,91.0527344 C175.621582,90.4511689 175.415692,89.971356 175.003906,89.6132812 C174.59212,89.2552065 174.071129,89.0761719 173.440918,89.0761719 L170.143066,89.0761719 L170.143066,93.0185547 Z M186.41748,101 L186.41748,86.3261719 L193.281738,86.3261719 C194.05518,86.3261719 194.758786,86.4514961 195.392578,86.7021484 C196.02637,86.9528007 196.545571,87.2929666 196.950195,87.7226562 C197.35482,88.1523459 197.66634,88.6518526 197.884766,89.2211914 C198.103191,89.7905302 198.212402,90.4010384 198.212402,91.0527344 C198.212402,91.6972688 198.103191,92.302406 197.884766,92.8681641 C197.66634,93.4339221 197.353029,93.9334288 196.944824,94.3666992 C196.536619,94.7999696 196.017419,95.1419258 195.387207,95.3925781 C194.756996,95.6432304 194.05518,95.7685547 193.281738,95.7685547 L189.543457,95.7685547 L189.543457,101 L186.41748,101 Z M189.543457,93.0185547 L192.841309,93.0185547 C193.47152,93.0185547 193.992511,92.83952 194.404297,92.4814453 C194.816083,92.1233706 195.021973,91.6471384 195.021973,91.0527344 C195.021973,90.4511689 194.816083,89.971356 194.404297,89.6132812 C193.992511,89.2552065 193.47152,89.0761719 192.841309,89.0761719 L189.543457,89.0761719 L189.543457,93.0185547 Z M200.16748,101 L200.16748,86.3261719 L207.031738,86.3261719 C208.535652,86.3261719 209.736975,86.7665972 210.635742,87.6474609 C211.53451,88.5283247 211.983887,89.6634045 211.983887,91.0527344 C211.983887,91.6686229 211.890789,92.2379531 211.70459,92.7607422 C211.518391,93.2835313 211.267742,93.7185855 210.952637,94.065918 C210.637531,94.4132504 210.295575,94.6997059 209.926758,94.925293 C209.557941,95.15088 209.165855,95.3138016 208.750488,95.4140625 L212.069824,101 L208.460449,101 L205.581543,95.7900391 L203.293457,95.7900391 L203.293457,101 L200.16748,101 Z M203.293457,93.0400391 L206.591309,93.0400391 C207.22152,93.0400391 207.742511,92.859214 208.154297,92.4975586 C208.566083,92.1359031 208.771973,91.6471385 208.771973,91.03125 C208.771973,90.436846 208.566083,89.9624041 208.154297,89.6079102 C207.742511,89.2534162 207.22152,89.0761719 206.591309,89.0761719 L203.293457,89.0761719 L203.293457,93.0400391 Z M214.304199,101 L214.304199,86.3261719 L224.691895,86.3261719 L224.691895,89.0761719 L217.430176,89.0761719 L217.430176,92.1591797 L224.530762,92.1591797 L224.530762,94.9091797 L217.430176,94.9091797 L217.430176,98.25 L224.691895,98.25 L224.691895,101 L214.304199,101 Z M226.109863,98.9267578 L227.828613,96.4882812 C228.394371,97.0826853 229.076493,97.5660789 229.875,97.9384766 C230.673507,98.3108743 231.545405,98.4970703 232.490723,98.4970703 C233.314294,98.4970703 233.944497,98.3413102 234.381348,98.0297852 C234.818199,97.7182602 235.036621,97.3297549 235.036621,96.8642578 C235.036621,96.5634751 234.914878,96.3038748 234.671387,96.0854492 C234.427896,95.8670236 234.109214,95.6987311 233.715332,95.5805664 C233.32145,95.4624018 232.872073,95.3370775 232.367188,95.2045898 C231.862302,95.0721022 231.344892,94.9467779 230.814941,94.8286133 C230.284991,94.7104486 229.767581,94.5385753 229.262695,94.3129883 C228.75781,94.0874012 228.308433,93.8260106 227.914551,93.5288086 C227.520669,93.2316066 227.201987,92.8287786 226.958496,92.3203125 C226.715005,91.8118464 226.593262,91.2281934 226.593262,90.5693359 C226.593262,89.308913 227.09993,88.2508181 228.113281,87.3950195 C229.126633,86.539221 230.474764,86.1113281 232.157715,86.1113281 C234.506685,86.1113281 236.415194,86.7916599 237.883301,88.1523438 L236.143066,90.4833984 C235.562985,89.9534479 234.900557,89.5542006 234.155762,89.2856445 C233.410966,89.0170885 232.651859,88.8828125 231.878418,88.8828125 C231.226722,88.8828125 230.718264,89.0135078 230.353027,89.2749023 C229.987791,89.5362969 229.805176,89.8889952 229.805176,90.3330078 C229.805176,90.6051446 229.925129,90.8414704 230.165039,91.0419922 C230.404949,91.242514 230.723631,91.3982742 231.121094,91.5092773 C231.518557,91.6202805 231.969724,91.7420241 232.474609,91.8745117 C232.979495,92.0069994 233.493324,92.134114 234.016113,92.2558594 C234.538902,92.3776048 235.052732,92.5548491 235.557617,92.7875977 C236.062503,93.0203462 236.51367,93.2888982 236.911133,93.5932617 C237.308596,93.8976252 237.627277,94.3040339 237.867188,94.8125 C238.107098,95.3209661 238.227051,95.9010384 238.227051,96.5527344 C238.227051,97.9563872 237.723963,99.0932574 236.717773,99.9633789 C235.711584,100.8335 234.259612,101.268555 232.361816,101.268555 C229.755033,101.268555 227.671069,100.487964 226.109863,98.9267578 L226.109863,98.9267578 Z M240.311035,101 L240.311035,86.3261719 L243.437012,86.3261719 L243.437012,101 L240.311035,101 Z M246.337402,101 L246.337402,86.3261719 L252.127441,86.3261719 C254.433443,86.3261719 256.307935,86.9993422 257.750977,88.3457031 C259.194018,89.692064 259.915527,91.4609265 259.915527,93.6523438 C259.915527,95.1132886 259.587894,96.4023382 258.932617,97.5195312 C258.27734,98.6367243 257.362473,99.4960907 256.187988,100.097656 C255.013503,100.699222 253.667163,101 252.148926,101 L246.337402,101 Z M249.463379,98.25 L252.127441,98.25 C253.065597,98.25 253.889157,98.0387391 254.598145,97.6162109 C255.307132,97.1936828 255.838865,96.6386753 256.193359,95.9511719 C256.547853,95.2636684 256.725098,94.4974001 256.725098,93.6523438 C256.725098,92.3131443 256.32406,91.2156618 255.521973,90.3598633 C254.719885,89.5040647 253.595548,89.0761719 252.148926,89.0761719 L249.463379,89.0761719 L249.463379,98.25 Z M262.128418,101 L262.128418,86.3261719 L272.516113,86.3261719 L272.516113,89.0761719 L265.254395,89.0761719 L265.254395,92.1591797 L272.35498,92.1591797 L272.35498,94.9091797 L265.254395,94.9091797 L265.254395,98.25 L272.516113,98.25 L272.516113,101 L262.128418,101 Z M274.943848,101 L274.943848,86.3261719 L278.155762,86.3261719 L284.955566,95.5429688 L284.955566,86.3261719 L288.081543,86.3261719 L288.081543,101 L285.062988,101 L278.069824,91.4287109 L278.069824,101 L274.943848,101 Z M290.068848,89.0761719 L290.068848,86.3261719 L301.777832,86.3261719 L301.777832,89.0761719 L297.502441,89.0761719 L297.502441,101 L294.365723,101 L294.365723,89.0761719 L290.068848,89.0761719 Z M303.765137,101 L303.765137,86.3261719 L306.891113,86.3261719 L306.891113,101 L303.765137,101 Z M308.255371,101 L313.905762,86.3261719 L317.82666,86.3261719 L323.477051,101 L319.932129,101 L319.008301,98.5185547 L312.724121,98.5185547 L311.800293,101 L308.255371,101 Z M313.572754,95.7685547 L318.148926,95.7685547 L315.86084,89.4521484 L313.572754,95.7685547 Z M324.70166,101 L324.70166,86.3261719 L327.849121,86.3261719 L327.849121,98.25 L334.047363,98.25 L334.047363,101 L324.70166,101 Z M341.10498,93.6738281 C341.10498,92.1913988 341.448727,90.870123 342.13623,89.7099609 C342.823734,88.5497989 343.761876,87.6546255 344.950684,87.0244141 C346.139492,86.3942026 347.467929,86.0791016 348.936035,86.0791016 C349.709477,86.0791016 350.427406,86.1775706 351.089844,86.3745117 C351.752282,86.5714528 352.328774,86.8435855 352.819336,87.190918 C353.309898,87.5382504 353.736001,87.9142232 354.097656,88.3188477 C354.459312,88.7234721 354.776203,89.1728491 355.04834,89.6669922 L352.362793,90.9882812 C352.047687,90.3723928 351.578616,89.8639343 350.955566,89.4628906 C350.332516,89.061847 349.659346,88.8613281 348.936035,88.8613281 C347.596836,88.8613281 346.492192,89.3160762 345.62207,90.2255859 C344.751949,91.1350957 344.316895,92.2844983 344.316895,93.6738281 C344.316895,95.063158 344.751949,96.2143509 345.62207,97.1274414 C346.492192,98.0405319 347.596836,98.4970703 348.936035,98.4970703 C349.659346,98.4970703 350.332516,98.2947611 350.955566,97.8901367 C351.578616,97.4855123 352.047687,96.9752635 352.362793,96.359375 L355.04834,97.6591797 C354.769042,98.1533228 354.45215,98.6026998 354.097656,99.0073242 C353.743162,99.4119486 353.31885,99.7897118 352.824707,100.140625 C352.330564,100.491538 351.752282,100.767252 351.089844,100.967773 C350.427406,101.168295 349.709477,101.268555 348.936035,101.268555 C347.840327,101.268555 346.810877,101.082359 345.847656,100.709961 C344.884435,100.337563 344.053714,99.8237337 343.355469,99.168457 C342.657223,98.5131803 342.107587,97.711105 341.706543,96.762207 C341.305499,95.8133091 341.10498,94.7838597 341.10498,93.6738281 L341.10498,93.6738281 Z M355.370605,101 L361.020996,86.3261719 L364.941895,86.3261719 L370.592285,101 L367.047363,101 L366.123535,98.5185547 L359.839355,98.5185547 L358.915527,101 L355.370605,101 Z M360.687988,95.7685547 L365.26416,95.7685547 L362.976074,89.4521484 L360.687988,95.7685547 Z M371.945801,101 L371.945801,86.3261719 L375.157715,86.3261719 L381.95752,95.5429688 L381.95752,86.3261719 L385.083496,86.3261719 L385.083496,101 L382.064941,101 L375.071777,91.4287109 L375.071777,101 L371.945801,101 Z M387.973145,101 L387.973145,86.3261719 L393.763184,86.3261719 C396.069185,86.3261719 397.943678,86.9993422 399.386719,88.3457031 C400.82976,89.692064 401.55127,91.4609265 401.55127,93.6523438 C401.55127,95.1132886 401.223636,96.4023382 400.568359,97.5195312 C399.913083,98.6367243 398.998216,99.4960907 397.82373,100.097656 C396.649245,100.699222 395.302905,101 393.784668,101 L387.973145,101 Z M391.099121,98.25 L393.763184,98.25 C394.701339,98.25 395.524899,98.0387391 396.233887,97.6162109 C396.942875,97.1936828 397.474608,96.6386753 397.829102,95.9511719 C398.183596,95.2636684 398.36084,94.4974001 398.36084,93.6523438 C398.36084,92.3131443 397.959802,91.2156618 397.157715,90.3598633 C396.355627,89.5040647 395.23129,89.0761719 393.784668,89.0761719 L391.099121,89.0761719 L391.099121,98.25 Z M403.76416,101 L403.76416,86.3261719 L406.890137,86.3261719 L406.890137,101 L403.76416,101 Z M409.790527,101 L409.790527,86.3261719 L415.580566,86.3261719 C417.886568,86.3261719 419.76106,86.9993422 421.204102,88.3457031 C422.647143,89.692064 423.368652,91.4609265 423.368652,93.6523438 C423.368652,95.1132886 423.041019,96.4023382 422.385742,97.5195312 C421.730465,98.6367243 420.815598,99.4960907 419.641113,100.097656 C418.466628,100.699222 417.120288,101 415.602051,101 L409.790527,101 Z M412.916504,98.25 L415.580566,98.25 C416.518722,98.25 417.342282,98.0387391 418.05127,97.6162109 C418.760257,97.1936828 419.29199,96.6386753 419.646484,95.9511719 C420.000978,95.2636684 420.178223,94.4974001 420.178223,93.6523438 C420.178223,92.3131443 419.777185,91.2156618 418.975098,90.3598633 C418.17301,89.5040647 417.048673,89.0761719 415.602051,89.0761719 L412.916504,89.0761719 L412.916504,98.25 Z M424.04541,101 L429.695801,86.3261719 L433.616699,86.3261719 L439.26709,101 L435.722168,101 L434.79834,98.5185547 L428.51416,98.5185547 L427.590332,101 L424.04541,101 Z M429.362793,95.7685547 L433.938965,95.7685547 L431.650879,89.4521484 L429.362793,95.7685547 Z M439.718262,89.0761719 L439.718262,86.3261719 L451.427246,86.3261719 L451.427246,89.0761719 L447.151855,89.0761719 L447.151855,101 L444.015137,101 L444.015137,89.0761719 L439.718262,89.0761719 Z M453.414551,101 L453.414551,86.3261719 L463.802246,86.3261719 L463.802246,89.0761719 L456.540527,89.0761719 L456.540527,92.1591797 L463.641113,92.1591797 L463.641113,94.9091797 L456.540527,94.9091797 L456.540527,98.25 L463.802246,98.25 L463.802246,101 L453.414551,101 Z M465.220215,98.9267578 L466.938965,96.4882812 C467.504723,97.0826853 468.186845,97.5660789 468.985352,97.9384766 C469.783858,98.3108743 470.655757,98.4970703 471.601074,98.4970703 C472.424646,98.4970703 473.054848,98.3413102 473.491699,98.0297852 C473.92855,97.7182602 474.146973,97.3297549 474.146973,96.8642578 C474.146973,96.5634751 474.025229,96.3038748 473.781738,96.0854492 C473.538247,95.8670236 473.219566,95.6987311 472.825684,95.5805664 C472.431801,95.4624018 471.982424,95.3370775 471.477539,95.2045898 C470.972654,95.0721022 470.455244,94.9467779 469.925293,94.8286133 C469.395342,94.7104486 468.877932,94.5385753 468.373047,94.3129883 C467.868162,94.0874012 467.418785,93.8260106 467.024902,93.5288086 C466.63102,93.2316066 466.312338,92.8287786 466.068848,92.3203125 C465.825357,91.8118464 465.703613,91.2281934 465.703613,90.5693359 C465.703613,89.308913 466.210281,88.2508181 467.223633,87.3950195 C468.236984,86.539221 469.585115,86.1113281 471.268066,86.1113281 C473.617036,86.1113281 475.525546,86.7916599 476.993652,88.1523438 L475.253418,90.4833984 C474.673337,89.9534479 474.010909,89.5542006 473.266113,89.2856445 C472.521318,89.0170885 471.762211,88.8828125 470.98877,88.8828125 C470.337074,88.8828125 469.828615,89.0135078 469.463379,89.2749023 C469.098143,89.5362969 468.915527,89.8889952 468.915527,90.3330078 C468.915527,90.6051446 469.035481,90.8414704 469.275391,91.0419922 C469.515301,91.242514 469.833982,91.3982742 470.231445,91.5092773 C470.628908,91.6202805 471.080076,91.7420241 471.584961,91.8745117 C472.089846,92.0069994 472.603676,92.134114 473.126465,92.2558594 C473.649254,92.3776048 474.163083,92.5548491 474.667969,92.7875977 C475.172854,93.0203462 475.624021,93.2888982 476.021484,93.5932617 C476.418947,93.8976252 476.737629,94.3040339 476.977539,94.8125 C477.217449,95.3209661 477.337402,95.9010384 477.337402,96.5527344 C477.337402,97.9563872 476.834315,99.0932574 475.828125,99.9633789 C474.821935,100.8335 473.369964,101.268555 471.472168,101.268555 C468.865384,101.268555 466.781421,100.487964 465.220215,98.9267578 L465.220215,98.9267578 Z" id="2015-GOP-PRESIDENTIA" fill="#B4B4B4" sketch:type="MSShapeGroup"></path>
            </g>
        </g>
    </g>
</svg>