<?xml version="1.0" encoding="UTF-8" standalone="no"?>
<svg width="200px" height="54px" viewBox="0 0 200 54" version="1.1" xmlns="http://www.w3.org/2000/svg" xmlns:xlink="http://www.w3.org/1999/xlink" xmlns:sketch="http://www.bohemiancoding.com/sketch/ns">
    <!-- Generator: Sketch 3.3.3 (12072) - http://www.bohemiancoding.com/sketch -->
    <title>Logo</title>
    <desc>Created with Sketch.</desc>
    <defs></defs>
    <g id="Page-1" stroke="none" stroke-width="1" fill="none" fill-rule="evenodd" sketch:type="MSPage">
        <g id="Candidates" sketch:type="MSArtboardGroup" transform="translate(-779.000000, -1193.000000)" fill="#25272B">
            <g id="Footer" sketch:type="MSLayerGroup" transform="translate(30.000000, 1187.000000)">
                <g id="Presented" transform="translate(749.000000, 0.000000)" sketch:type="MSShapeGroup">
                    <g id="Logo" transform="translate(0.000000, 6.000000)">
                        <g id="Hitlist" transform="translate(64.333333, 12.666667)">
                            <path d="M135.666667,0.433333333 L135.666667,4.66666667 L127.333333,4.66666667 L127.333333,28.1166667 L122.183333,28.1166667 L122.183333,4.66666667 L113.816667,4.66666667 L113.816667,0.433333333 L135.666667,0.433333333 L135.666667,0.433333333 Z" id="Shape"></path>
                            <path d="M110.45,5.46666667 C110.166667,6.01666667 109.816667,6.23333333 109.3,6.23333333 C108.266667,6.23333333 106.883333,4.31666667 103.733333,4.31666667 C100.9,4.31666667 99.45,5.75 99.45,7.8 C99.45,13.05 112.216667,10.2333333 112.216667,19.4333333 C112.216667,24.4333333 108.716667,28.4166667 102.6,28.4166667 C99.0833333,28.4166667 95.65,26.9833333 93.5,24.7833333 L95,22.3166667 C95.2833333,21.95 95.6833333,21.6833333 96.1666667,21.6833333 C97.45,21.6833333 98.95,24.2166667 102.75,24.2166667 C105.683333,24.2166667 107.366667,22.7833333 107.366667,20.1833333 C107.366667,14.3333333 94.6166667,18.2166667 94.6166667,8.08333333 C94.6166667,4.01666667 97.9166667,0.133333333 103.666667,0.133333333 C106.933333,0.133333333 109.766667,1.2 111.7,3.05 L110.45,5.46666667 L110.45,5.46666667 Z" id="Shape"></path>
                            <path d="M89.4,28.1166667 L84.2333333,28.1166667 L84.2333333,0.433333333 L89.4,0.433333333 L89.4,28.1166667 L89.4,28.1166667 Z" id="Shape"></path>
                            <path d="M68.95,23.8666667 L80.0333333,23.8666667 L80.0333333,28.1166667 L63.8,28.1166667 L63.8,0.433333333 L68.95,0.433333333 L68.95,23.8666667 L68.95,23.8666667 Z" id="Shape"></path>
                            <path d="M60.5333333,0.433333333 L60.5333333,4.66666667 L52.2,4.66666667 L52.2,28.1166667 L47.05,28.1166667 L47.05,4.66666667 L38.6833333,4.66666667 L38.6833333,0.433333333 L60.5333333,0.433333333 L60.5333333,0.433333333 Z" id="Shape"></path>
                            <path d="M34.8,28.1166667 L29.6333333,28.1166667 L29.6333333,0.433333333 L34.8,0.433333333 L34.8,28.1166667 L34.8,28.1166667 Z" id="Shape"></path>
                            <path d="M23.4,28.1166667 L18.2166667,28.1166667 L18.2166667,16.0166667 L5.23333333,16.0166667 L5.23333333,28.1166667 L0.05,28.1166667 L0.05,0.433333333 L5.23333333,0.433333333 L5.23333333,12.3333333 L18.2166667,12.3333333 L18.2166667,0.433333333 L23.4,0.433333333 L23.4,28.1166667 L23.4,28.1166667 Z" id="Shape"></path>
                        </g>
                        <path d="M26.35,0.666666667 C11.8,0.666666667 0,12.4666667 0,27.0166667 C0,41.5666667 11.8,53.3666667 26.35,53.3666667 C40.9,53.3666667 52.7,41.5666667 52.7,27.0166667 C52.7,12.4666667 40.9,0.666666667 26.35,0.666666667 L26.35,0.666666667 L26.35,0.666666667 Z M17.55,11.4 L25.7166667,14.8 L25.9666667,7.68333333 L23.9833333,6.38333333 L23.9833333,5 L26.7333333,6.23333333 L29.4833333,5.01666667 L29.4833333,6.4 L27.5,7.68333333 L27.7,14.7833333 L35.8833333,11.4333333 L35.8833333,13.2666667 L27.8333333,18.4666667 L27.85,19.6333333 C27.85,20.3666667 27.75,21.0333333 27.5666667,21.6 L27.3,22.4 C27.1,22.9833333 26.8833333,23.2833333 26.65,23.2833333 C26.4333333,23.2833333 26.2333333,22.9833333 26.0333333,22.4 L25.7833333,21.6 C25.6,21.0166667 25.5166667,20.3833333 25.5166667,19.6666667 L25.5333333,18.4666667 L17.5333333,13.2333333 L17.55,11.4 L17.55,11.4 Z M10.8666667,36.4166667 L14.2,28.2333333 L7.08333333,28.0333333 L5.78333333,30.0166667 L4.4,30.0166667 L5.61666667,27.2666667 L4.38333333,24.5166667 L5.76666667,24.5166667 L7.06666667,26.5 L14.1666667,26.25 L10.7666667,18.0833333 L12.6,18.0666667 L17.8333333,26.0666667 L19,26.0333333 C19.7333333,26.0333333 20.4,26.1166667 20.9666667,26.3 L21.7666667,26.5666667 C22.35,26.7666667 22.65,26.9833333 22.65,27.2 C22.65,27.4166667 22.3666667,27.6166667 21.7666667,27.8166667 L20.9833333,28.0833333 C20.4,28.2666667 19.7666667,28.3666667 19.05,28.3666667 L17.85,28.3666667 L12.6833333,36.4 L10.8666667,36.4166667 L10.8666667,36.4166667 Z M35.95,43.2 L27.7833333,39.8 L27.5333333,46.9166667 L29.5166667,48.2333333 L29.5,49.6 L26.7666667,48.3666667 L24.0166667,49.5833333 L24.0166667,48.2 L26,46.9166667 L25.8,39.8166667 L17.6166667,43.1666667 L17.6166667,41.3333333 L25.6666667,36.15 L25.65,34.9833333 C25.65,34.25 25.75,33.5833333 25.9333333,33.0166667 L26.2,32.2166667 C26.4,31.6333333 26.6166667,31.3333333 26.85,31.3333333 C27.0666667,31.3333333 27.2666667,31.6333333 27.4666667,32.2166667 L27.7166667,33.0166667 C27.9,33.6 27.9833333,34.2333333 27.9833333,34.95 L27.9666667,36.15 L35.9666667,41.3833333 L35.95,43.2 L35.95,43.2 Z M46.0333333,27.7333333 L38.9333333,27.9833333 L42.3333333,36.15 L40.5,36.1666667 L35.2666667,28.1666667 L34.1,28.2 C33.3666667,28.2 32.7,28.1166667 32.1333333,27.9333333 L31.3333333,27.6666667 C30.75,27.4666667 30.45,27.25 30.45,27.0333333 C30.45,26.8166667 30.7333333,26.6166667 31.3333333,26.4166667 L32.1166667,26.15 C32.7,25.9666667 33.3333333,25.8666667 34.05,25.8666667 L35.25,25.8666667 L40.4166667,17.8333333 L42.25,17.8333333 L38.9166667,26.0166667 L46.0333333,26.2166667 L47.3333333,24.2333333 L48.7,24.2333333 L47.4833333,26.9833333 L48.7166667,29.7333333 L47.3333333,29.7333333 L46.0333333,27.7333333 L46.0333333,27.7333333 Z" id="Shape"></path>
                    </g>
                </g>
            </g>
        </g>
    </g>
</svg>